<mxfile host="65bd71144e">
    <diagram id="S1B5mirW3KNclSjLRCQ6" name="Page-2">
        <mxGraphModel dx="1146" dy="623" grid="0" gridSize="10" guides="1" tooltips="1" connect="1" arrows="1" fold="1" page="1" pageScale="1" pageWidth="1169" pageHeight="827" math="0" shadow="0">
            <root>
                <mxCell id="0"/>
                <mxCell id="1" parent="0"/>
                <mxCell id="icRV7tMFc5CZP1XdauB3-1" style="edgeStyle=none;html=1;exitX=0.5;exitY=1;exitDx=0;exitDy=0;entryX=0.25;entryY=0;entryDx=0;entryDy=0;fontSize=20;rounded=0;fontColor=default;labelBackgroundColor=none;labelBorderColor=none;fillColor=#60a917;strokeColor=#2D7600;strokeWidth=2.5;" parent="1" source="icRV7tMFc5CZP1XdauB3-2" target="icRV7tMFc5CZP1XdauB3-8" edge="1">
                    <mxGeometry relative="1" as="geometry"/>
                </mxCell>
                <mxCell id="icRV7tMFc5CZP1XdauB3-2" value="&lt;font style=&quot;font-size: 16px;&quot;&gt;&lt;font style=&quot;font-size: 16px;&quot;&gt;Vibration sensors on guitar strings&lt;/font&gt;&lt;br style=&quot;font-size: 16px;&quot;&gt;&lt;/font&gt;" style="whiteSpace=wrap;html=1;fillColor=none;gradientColor=none;strokeWidth=1;rounded=0;fontColor=default;labelBackgroundColor=none;labelBorderColor=none;fontSize=16;" parent="1" vertex="1">
                    <mxGeometry x="541.92" y="263" width="120" height="60" as="geometry"/>
                </mxCell>
                <mxCell id="icRV7tMFc5CZP1XdauB3-3" style="edgeStyle=none;html=1;exitX=0.5;exitY=1;exitDx=0;exitDy=0;entryX=0.75;entryY=0;entryDx=0;entryDy=0;fontSize=20;rounded=0;fontColor=default;labelBackgroundColor=none;labelBorderColor=none;fillColor=#60a917;strokeColor=#2D7600;strokeWidth=2.5;" parent="1" source="icRV7tMFc5CZP1XdauB3-4" target="icRV7tMFc5CZP1XdauB3-8" edge="1">
                    <mxGeometry relative="1" as="geometry"/>
                </mxCell>
                <mxCell id="icRV7tMFc5CZP1XdauB3-4" value="&lt;font style=&quot;font-size: 20px;&quot;&gt;Pitch identifier&lt;/font&gt;" style="whiteSpace=wrap;html=1;fillColor=none;gradientColor=none;strokeWidth=1;rounded=0;fontColor=default;labelBackgroundColor=none;labelBorderColor=none;" parent="1" vertex="1">
                    <mxGeometry x="731.92" y="263" width="120" height="60" as="geometry"/>
                </mxCell>
                <mxCell id="icRV7tMFc5CZP1XdauB3-5" value="&lt;p style=&quot;line-height: 140%;&quot;&gt;&lt;font style=&quot;font-size: 20px;&quot;&gt;Guitar sensors&lt;/font&gt;&lt;/p&gt;" style="text;html=1;align=center;verticalAlign=middle;resizable=0;points=[];autosize=1;strokeColor=none;fillColor=none;strokeWidth=3;rounded=0;fontColor=default;labelBackgroundColor=none;labelBorderColor=none;" parent="1" vertex="1">
                    <mxGeometry x="620.92" y="213" width="150" height="60" as="geometry"/>
                </mxCell>
                <mxCell id="icRV7tMFc5CZP1XdauB3-6" style="edgeStyle=none;html=1;exitX=0;exitY=0.5;exitDx=0;exitDy=0;entryX=1;entryY=0.5;entryDx=0;entryDy=0;fontSize=20;rounded=0;fontColor=default;labelBackgroundColor=none;labelBorderColor=none;fillColor=#60a917;strokeColor=#2D7600;strokeWidth=2.5;" parent="1" source="icRV7tMFc5CZP1XdauB3-8" target="icRV7tMFc5CZP1XdauB3-16" edge="1">
                    <mxGeometry relative="1" as="geometry"/>
                </mxCell>
                <mxCell id="icRV7tMFc5CZP1XdauB3-7" style="edgeStyle=none;html=1;exitX=0.25;exitY=1;exitDx=0;exitDy=0;entryX=0.413;entryY=0.003;entryDx=0;entryDy=0;entryPerimeter=0;fontSize=18;rounded=0;fontColor=default;labelBackgroundColor=none;labelBorderColor=none;fillColor=#0050ef;strokeColor=#001DBC;strokeWidth=2.5;" parent="1" source="icRV7tMFc5CZP1XdauB3-8" edge="1">
                    <mxGeometry relative="1" as="geometry">
                        <mxPoint x="656.7700000000001" y="633.5999999999997" as="targetPoint"/>
                    </mxGeometry>
                </mxCell>
                <mxCell id="icRV7tMFc5CZP1XdauB3-8" value="Arduino" style="whiteSpace=wrap;html=1;strokeWidth=1.5;fontSize=20;fillColor=none;gradientColor=none;rounded=0;fontColor=default;labelBackgroundColor=none;labelBorderColor=none;" parent="1" vertex="1">
                    <mxGeometry x="618.42" y="458" width="155" height="80" as="geometry"/>
                </mxCell>
                <mxCell id="icRV7tMFc5CZP1XdauB3-9" value="Motor" style="whiteSpace=wrap;html=1;strokeWidth=1;fontSize=20;fillColor=none;gradientColor=none;rounded=0;fontColor=default;labelBackgroundColor=none;labelBorderColor=none;" parent="1" vertex="1">
                    <mxGeometry x="240.92" y="481.75" width="120" height="60" as="geometry"/>
                </mxCell>
                <mxCell id="icRV7tMFc5CZP1XdauB3-10" value="&lt;span style=&quot;white-space: pre;&quot;&gt;&#9;&lt;/span&gt;" style="whiteSpace=wrap;html=1;strokeWidth=0.5;fontSize=20;fillColor=none;gradientColor=none;dashed=1;dashPattern=8 8;rounded=0;fontColor=default;labelBackgroundColor=none;labelBorderColor=none;" parent="1" vertex="1">
                    <mxGeometry x="515.92" y="223" width="360" height="140" as="geometry"/>
                </mxCell>
                <mxCell id="icRV7tMFc5CZP1XdauB3-11" style="edgeStyle=none;html=1;fontSize=20;entryX=0;entryY=0.5;entryDx=0;entryDy=0;rounded=0;fontColor=default;labelBackgroundColor=none;labelBorderColor=none;strokeWidth=2;fillColor=#fa6800;strokeColor=#C73500;" parent="1" source="icRV7tMFc5CZP1XdauB3-13" target="icRV7tMFc5CZP1XdauB3-10" edge="1">
                    <mxGeometry relative="1" as="geometry">
                        <mxPoint x="475.91999999999996" y="283" as="targetPoint"/>
                    </mxGeometry>
                </mxCell>
                <mxCell id="icRV7tMFc5CZP1XdauB3-13" value="User" style="whiteSpace=wrap;html=1;strokeWidth=1;fontSize=20;fillColor=none;gradientColor=none;rounded=0;fontColor=default;labelBackgroundColor=none;labelBorderColor=none;" parent="1" vertex="1">
                    <mxGeometry x="315.91999999999996" y="263" width="110" height="60" as="geometry"/>
                </mxCell>
                <mxCell id="icRV7tMFc5CZP1XdauB3-14" value="Speaker" style="whiteSpace=wrap;html=1;strokeWidth=1;fontSize=20;fillColor=none;gradientColor=none;rounded=0;fontColor=default;labelBackgroundColor=none;labelBorderColor=none;" parent="1" vertex="1">
                    <mxGeometry x="380.91999999999996" y="481.75" width="120" height="60" as="geometry"/>
                </mxCell>
                <mxCell id="icRV7tMFc5CZP1XdauB3-15" style="edgeStyle=none;html=1;exitX=0.5;exitY=0;exitDx=0;exitDy=0;entryX=0.5;entryY=1;entryDx=0;entryDy=0;fontSize=20;rounded=0;fontColor=default;labelBackgroundColor=none;labelBorderColor=none;strokeWidth=2;fillColor=#fa6800;strokeColor=#C73500;" parent="1" source="icRV7tMFc5CZP1XdauB3-16" target="icRV7tMFc5CZP1XdauB3-13" edge="1">
                    <mxGeometry relative="1" as="geometry"/>
                </mxCell>
                <mxCell id="icRV7tMFc5CZP1XdauB3-16" value="" style="whiteSpace=wrap;html=1;strokeWidth=0.5;fontSize=20;fillColor=none;gradientColor=none;dashed=1;rounded=0;fontColor=default;labelBackgroundColor=none;labelBorderColor=none;" parent="1" vertex="1">
                    <mxGeometry x="225.92" y="444.25" width="290" height="110" as="geometry"/>
                </mxCell>
                <mxCell id="icRV7tMFc5CZP1XdauB3-17" value="Actuators" style="text;html=1;align=center;verticalAlign=middle;resizable=0;points=[];autosize=1;strokeColor=none;fillColor=none;fontSize=20;rounded=0;fontColor=default;labelBackgroundColor=none;labelBorderColor=none;" parent="1" vertex="1">
                    <mxGeometry x="315.91999999999996" y="441.75" width="110" height="40" as="geometry"/>
                </mxCell>
                <mxCell id="icRV7tMFc5CZP1XdauB3-18" style="edgeStyle=none;html=1;exitX=0.586;exitY=0;exitDx=0;exitDy=0;entryX=0.75;entryY=1;entryDx=0;entryDy=0;fontSize=18;exitPerimeter=0;rounded=0;fontColor=default;labelBackgroundColor=none;labelBorderColor=none;fillColor=#0050ef;strokeColor=#001DBC;strokeWidth=2.5;" parent="1" target="icRV7tMFc5CZP1XdauB3-8" edge="1">
                    <mxGeometry relative="1" as="geometry">
                        <mxPoint x="734.62" y="633" as="sourcePoint"/>
                    </mxGeometry>
                </mxCell>
                <mxCell id="icRV7tMFc5CZP1XdauB3-19" value="Phone app functions" style="whiteSpace=wrap;html=1;strokeWidth=1;fontSize=22;fillColor=none;gradientColor=none;rounded=0;fontColor=default;labelBackgroundColor=none;labelBorderColor=none;" parent="1" vertex="1">
                    <mxGeometry x="635.92" y="633" width="120" height="60" as="geometry"/>
                </mxCell>
                <mxCell id="icRV7tMFc5CZP1XdauB3-21" value="" style="line;strokeWidth=2;html=1;labelBackgroundColor=#000000;fillColor=#60a917;fontColor=#ffffff;strokeColor=#2D7600;" parent="1" vertex="1">
                    <mxGeometry x="884" y="463.5" width="50" height="10" as="geometry"/>
                </mxCell>
                <mxCell id="icRV7tMFc5CZP1XdauB3-42" value="" style="line;strokeWidth=2;html=1;labelBackgroundColor=#000000;fillColor=#0050ef;fontColor=#ffffff;strokeColor=#001DBC;" parent="1" vertex="1">
                    <mxGeometry x="884" y="498" width="50" height="10" as="geometry"/>
                </mxCell>
                <mxCell id="icRV7tMFc5CZP1XdauB3-45" value="Wired connection&lt;br style=&quot;font-size: 14px;&quot;&gt;" style="text;html=1;align=center;verticalAlign=middle;resizable=0;points=[];autosize=1;strokeColor=none;fillColor=none;fontSize=14;" parent="1" vertex="1">
                    <mxGeometry x="948.08" y="454" width="126" height="29" as="geometry"/>
                </mxCell>
                <mxCell id="icRV7tMFc5CZP1XdauB3-46" value="" style="line;strokeWidth=2;html=1;labelBackgroundColor=#000000;fillColor=#fa6800;fontColor=#000000;strokeColor=#C73500;" parent="1" vertex="1">
                    <mxGeometry x="884" y="532.75" width="50" height="10" as="geometry"/>
                </mxCell>
                <mxCell id="icRV7tMFc5CZP1XdauB3-47" value="Bluetooth signal&lt;br style=&quot;font-size: 14px;&quot;&gt;" style="text;html=1;align=center;verticalAlign=middle;resizable=0;points=[];autosize=1;strokeColor=none;fillColor=none;fontSize=14;" parent="1" vertex="1">
                    <mxGeometry x="948.08" y="488.5" width="118" height="29" as="geometry"/>
                </mxCell>
                <mxCell id="icRV7tMFc5CZP1XdauB3-48" value="Physical interaction" style="text;html=1;align=center;verticalAlign=middle;resizable=0;points=[];autosize=1;strokeColor=none;fillColor=none;fontSize=14;" parent="1" vertex="1">
                    <mxGeometry x="941.58" y="523.25" width="139" height="29" as="geometry"/>
                </mxCell>
                <mxCell id="9QQeFI_0wpZgoj8wDjUt-1" value="Guitar tuning" style="whiteSpace=wrap;html=1;sketch=0;strokeWidth=1;fontSize=18;fillColor=#000000;gradientColor=none;labelBackgroundColor=#000000;" parent="1" vertex="1">
                    <mxGeometry x="495.91999999999996" y="710" width="120" height="60" as="geometry"/>
                </mxCell>
                <mxCell id="9QQeFI_0wpZgoj8wDjUt-2" value="Chord learning" style="whiteSpace=wrap;html=1;sketch=0;strokeWidth=1;fontSize=18;fillColor=#000000;gradientColor=none;labelBackgroundColor=#000000;" parent="1" vertex="1">
                    <mxGeometry x="635.92" y="710" width="120" height="60" as="geometry"/>
                </mxCell>
                <mxCell id="9QQeFI_0wpZgoj8wDjUt-3" value="Tablature tracking" style="whiteSpace=wrap;html=1;sketch=0;strokeWidth=1;fontSize=18;fillColor=#000000;gradientColor=none;labelBackgroundColor=#000000;" parent="1" vertex="1">
                    <mxGeometry x="775.92" y="710" width="120" height="60" as="geometry"/>
                </mxCell>
            </root>
        </mxGraphModel>
    </diagram>
</mxfile>